<svg width="15" height="16"><g fill="#4E9BFF"><path d="M13.395 1.235h-1.609V.527A.533.533 0 0011.251 0a.533.533 0 00-.535.527v.708H4.821V.527A.533.533 0 004.286 0a.533.533 0 00-.535.527v.708H1.605C.725 1.235 0 1.942 0 2.815V14.42C0 15.287.718 16 1.605 16h11.79c.88 0 1.605-.707 1.605-1.58V2.815c0-.867-.718-1.58-1.605-1.58zm.533 13.185a.532.532 0 01-.533.525H1.605a.532.532 0 01-.533-.525V2.815c0-.288.242-.524.533-.524h2.144v.15c0 .29.242.526.535.526a.533.533 0 00.535-.526v-.15h5.893v.15c0 .29.242.526.535.526a.533.533 0 00.535-.526v-.15h1.609c.293 0 .533.238.533.524V14.42h.004z"/><path d="M11.929 5H3.525A.525.525 0 003 5.521c0 .288.235.522.525.522h8.404c.29 0 .525-.236.525-.522A.524.524 0 0011.929 5zm0 3.132H3.525A.525.525 0 003 8.654c0 .287.235.52.525.52h8.404c.29 0 .525-.235.525-.52a.524.524 0 00-.525-.522zm-4.202 3.132H3.525a.525.525 0 00-.525.522c0 .287.235.521.525.521h4.202a.525.525 0 00.524-.521.524.524 0 00-.524-.522zm4.764.496h-.728v-.724a.51.51 0 00-1.017 0v.724h-.728a.51.51 0 00-.508.505c0 .278.23.506.508.506h.728v.723a.51.51 0 001.017 0v-.723h.728a.51.51 0 00.509-.506.51.51 0 00-.509-.505z"/></g></svg>