<?xml version="1.0" standalone="no"?><!DOCTYPE svg PUBLIC "-//W3C//DTD SVG 1.1//EN" "http://www.w3.org/Graphics/SVG/1.1/DTD/svg11.dtd"><svg t="1600930594642" class="icon" viewBox="0 0 1024 1024" version="1.1" xmlns="http://www.w3.org/2000/svg" p-id="2429" xmlns:xlink="http://www.w3.org/1999/xlink" width="200" height="200"><defs><style type="text/css"></style></defs><path d="M731.32604021 529.22488047a241.02911273 241.02911273 0 0 1-134.1875631 40.56701927A240.9161126 240.9161126 0 0 1 463.40291456 529.50738042a311.37164566 311.37164566 0 0 0-175.71508235 280.57913155c0 130.79756135 619.80529013 128.98955996 619.8052901 1e-8a311.31514598 311.31514598 0 0 0-176.1670821-280.80513105z m-342.50316019-203.40009544A208.76759763 208.76759763 0 0 1 597.13847711 116.4921875a208.76759763 208.76759763 0 0 1 208.31559784 209.27609784 208.71109794 208.71109794 0 0 1-208.31559784 209.16309773A208.71109794 208.71109794 0 0 1 388.82288002 325.76828534z m-137.86006479 495.10973223c0 4.80250228 0.79100017 9.3225046 2.26000116 13.84250615-78.30903668-12.54300577-136.73006422-37.29001765-136.73006421-74.63653499a269.50512601 269.50512601 0 0 1 152.04157136-242.8936138c31.41401447 20.9050096 68.76053181 33.50451581 109.04505111 34.80401699a347.87066237 347.87066237 0 0 0-126.56005897 268.94012532z m103.22554839-495.16623191c0-53.11002502 16.89350827-102.26504763 45.59552105-142.38006634a171.87308006 171.87308006 0 0 0-186.56308687 171.5905801 171.81658038 171.81658038 0 0 0 171.47757998 172.32508061c21.30050969 0 41.69701985-3.95500165 60.45502843-11.13050523a243.96711394 243.96711394 0 0 1-90.96504259-190.40508914z" p-id="2430"></path></svg>