<svg width="18" height="18"><path d="M15.832 6.127L12.663 9.29a.54.54 0 01-.798 0L8.708 6.127a.538.538 0 010-.792l3.168-3.159a.54.54 0 01.798 0l3.158 3.17a.538.538 0 010 .781zm-8.754 9.872H2.545A.542.542 0 012 15.457v-4.514c0-.3.243-.542.544-.542h4.512c.3 0 .544.242.544.541v4.5a.543.543 0 01-.544.542L7.08 16h-.002zm0-7H2.545A.544.544 0 012 8.456V3.942c0-.3.243-.542.544-.542h4.512c.3 0 .543.243.544.542v4.504a.543.543 0 01-.544.542L7.08 9l-.001-.001zM9.544 10.4h4.513c.3 0 .544.242.544.542v4.513a.542.542 0 01-.545.544H9.543a.544.544 0 01-.542-.544V10.96c0-.3.243-.542.543-.543v-.018.002z"/></svg>