<?xml version="1.0" standalone="no"?><!DOCTYPE svg PUBLIC "-//W3C//DTD SVG 1.1//EN" "http://www.w3.org/Graphics/SVG/1.1/DTD/svg11.dtd"><svg t="1600930846104" class="icon" viewBox="0 0 1181 1024" version="1.1" xmlns="http://www.w3.org/2000/svg" p-id="2296" xmlns:xlink="http://www.w3.org/1999/xlink" width="230.6640625" height="200"><defs><style type="text/css"></style></defs><path d="M607.05300781 546.61463897a321.71488945 321.71488945 0 0 1-164.83820801 44.5153166 321.64565887 321.64565887 0 0 1-164.35359315-44.16916289C150.19986465 601.99916943 62 719.34514297 62 855.03724121c0 143.58439424 761.53728955 141.64593574 761.53728955 0C823.53728955 718.99898925 735.12973408 601.65301573 607.05300781 546.61463897zM200.46132529 304.30731993a242.30731993 242.30731993 0 1 1 484.61463897-2e-8 242.30731993 242.30731993 0 0 1-484.61463897 0z" p-id="2297"></path><path d="M754.30662734 269.69198838m34.61533154 0l276.92265059 0q34.61533154 0 34.61533155 34.61533153l0 0q0 34.61533154-34.61533154 34.61533067l-276.9226506 0q-34.61533154 0-34.61533154-34.61533067l0 0q0-34.61533154 34.61533154-34.61533153Z" p-id="2298"></path><path d="M823.53728955 477.38397676m34.61533154 0l207.69198838 0q34.61533154 0 34.61533155 34.61533066l0 0q0 34.61533154-34.61533155 34.61533155l-207.69198838 0q-34.61533154 0-34.61533154-34.61533155l0 0q0-34.61533154 34.61533154-34.61533066Z" p-id="2299"></path><path d="M892.76795263 685.07596426m34.61533155 0l138.46132529 0q34.61533154 0 34.61533155 34.61533154l0 0q0 34.61533154-34.61533155 34.61533154l-138.46132529 0q-34.61533154 0-34.61533155-34.61533154l0 0q0-34.61533154 34.61533155-34.61533154Z" p-id="2300"></path></svg>