<svg width="14" height="14"><path d="M10.882 7.305a4.266 4.266 0 01-2.375.718A4.264 4.264 0 016.14 7.31a5.511 5.511 0 00-3.11 4.966c0 2.315 10.97 2.283 10.97 0a5.51 5.51 0 00-3.118-4.97zm-6.062-3.6A3.695 3.695 0 018.507 0a3.695 3.695 0 013.687 3.704 3.694 3.694 0 01-3.687 3.702A3.694 3.694 0 014.82 3.704zm-2.44 8.763c0 .085.014.165.04.245-1.386-.222-2.42-.66-2.42-1.321a4.77 4.77 0 012.691-4.299c.556.37 1.217.593 1.93.616a6.157 6.157 0 00-2.24 4.76zm1.827-8.764c0-.94.299-1.81.807-2.52a3.042 3.042 0 00-3.302 3.037 3.041 3.041 0 003.035 3.05c.377 0 .738-.07 1.07-.197a4.318 4.318 0 01-1.61-3.37z"/></svg>