<?xml version="1.0" standalone="no"?><!DOCTYPE svg PUBLIC "-//W3C//DTD SVG 1.1//EN" "http://www.w3.org/Graphics/SVG/1.1/DTD/svg11.dtd"><svg t="1600930888333" class="icon" viewBox="0 0 1024 1024" version="1.1" xmlns="http://www.w3.org/2000/svg" p-id="2296" xmlns:xlink="http://www.w3.org/1999/xlink" width="200" height="200"><defs><style type="text/css"></style></defs><path d="M828.40625001 591.1015625h-98.87695314L630.65234375 421.03320311c23.73046875-11.86523438 39.55078125-39.55078125 39.55078125-67.23632811V195.59374999C670.203125 152.08789062 634.60742188 116.4921875 591.1015625 116.4921875H432.8984375c-43.50585938 0-79.1015625 35.59570313-79.1015625 79.10156249v158.20312501c0 27.68554688 15.8203125 51.41601563 39.55078125 67.23632813L294.47070311 591.1015625H195.59374999C152.08789062 591.1015625 116.4921875 626.69726563 116.4921875 670.203125v158.20312499c0 43.50585938 35.59570313 79.1015625 79.10156249 79.10156251h158.20312501c43.50585938 0 79.1015625-35.59570313 79.1015625-79.10156251v-51.41601562h158.203125v51.41601564c0 43.50585938 35.59570313 79.1015625 79.1015625 79.10156249h158.20312499c43.50585938 0 79.1015625-35.59570313 79.10156251-79.10156251V670.203125c0-43.50585938-35.59570313-79.1015625-79.10156251-79.1015625z m-395.50781251 126.5625V670.203125c0-39.55078125-31.640625-75.14648438-71.19140625-79.1015625l90.96679688-158.203125h114.69726562l90.96679688 158.203125c-39.55078125 3.95507813-71.19140625 35.59570313-71.19140626 79.1015625v47.4609375H432.8984375z" p-id="2297"></path></svg>