<svg width="15" height="15"><path d="M3.114 9.507a.35.35 0 01-.024-.491l.176-.194a.352.352 0 01.494-.024l1.937 1.76a.348.348 0 00.492-.025L10.2 6.114a.35.35 0 01.492-.024l.194.176c.141.129.153.35.024.493l-4.656 5.127a.35.35 0 01-.492.024L3.114 9.507z"/><path d="M.361 2A.36.36 0 000 2.357v12.286A.36.36 0 00.361 15H14.64a.36.36 0 00.361-.357V2.357A.36.36 0 0014.639 2H.36zm13.645 11.66a.36.36 0 01-.361.357H1.355a.36.36 0 01-.361-.358V3.341a.36.36 0 01.361-.358h12.29a.36.36 0 01.361.358v10.318z"/><path d="M11 4.61c0 .215-.152.39-.337.39h-.253c-.186 0-.338-.175-.338-.39V.39c0-.215.152-.39.338-.39h.253c.185 0 .337.175.337.39v4.22zm-6.072 0c0 .215-.152.39-.338.39h-.253C4.152 5 4 4.825 4 4.61V.39c0-.215.152-.39.337-.39h.253c.186 0 .338.175.338.39v4.22z"/></svg>