<?xml version="1.0" encoding="UTF-8"?>
<svg width="14px" height="14px" viewBox="0 0 14 14" version="1.1" xmlns="http://www.w3.org/2000/svg" xmlns:xlink="http://www.w3.org/1999/xlink">
    <g id="页面-1" stroke="none" stroke-width="1" fill="none" fill-rule="evenodd">
        <g id="1920我的工作台-已成单--学员" transform="translate(-458.000000, -394.000000)" fill="#409EFF" fill-rule="nonzero">
            <g id="Group-31" transform="translate(312.000000, 295.000000)">
                <g id="复制" transform="translate(146.000000, 99.000000)">
                    <path d="M4.97362271,0 L12.7098498,0 C13.4227045,0 14,0.577295497 14,1.28898164 L14,9.02637729 C14,9.73923205 13.4227045,10.3153589 12.7110184,10.3153589 L4.97362271,10.3153589 C4.26076795,10.3153589 3.68464107,9.73806344 3.68464107,9.02637729 L3.68464107,1.29015025 C3.68464107,0.577295497 4.26193656,0 4.97362271,0 Z M4.97362271,1.10550919 C4.8721029,1.10550919 4.78962417,1.18746386 4.78898163,1.28898164 L4.78898163,9.02637729 C4.78898163,9.12804674 4.87195326,9.21101837 4.97362271,9.21101837 L12.7098498,9.21101837 C12.8126878,9.21101837 12.8944908,9.12804674 12.8944908,9.02637729 L12.8944908,1.29015025 C12.8944908,1.18863044 12.8125361,1.10615173 12.7110184,1.10550919 L4.97362271,1.10550919 Z M9.21101837,11.4208681 C9.22459725,11.1257822 9.46779046,10.8935226 9.76318865,10.8935226 C10.0585868,10.8935226 10.30178,11.1257822 10.3153589,11.4208681 L10.3153589,12.7110184 C10.3153589,13.4238731 9.73806344,14 9.02637729,14 L1.29015025,14 C0.577295497,14 0,13.4227045 0,12.7110184 L0,4.97362271 C0,4.26076795 0.577295497,3.68464107 1.28898164,3.68464107 L2.57913189,3.68464107 C2.87421782,3.69821995 3.10647742,3.94141316 3.10647742,4.23681135 C3.10647742,4.53220954 2.87421782,4.77540275 2.57913189,4.78898163 L1.28898164,4.78898163 C1.18746386,4.78962417 1.10550716,4.8721029 1.10550919,4.97362271 L1.10550919,12.7098498 C1.10550919,12.8126878 1.18731219,12.8944908 1.28898164,12.8944908 L9.02637729,12.8944908 C9.12804674,12.8944908 9.21101837,12.8126878 9.21101837,12.7110184 L9.21101837,11.4208681 Z" id="形状"></path>
                </g>
            </g>
        </g>
    </g>
</svg>