<svg width="18" height="18"><path d="M15.16 12.818c.086.585.589.499.675.757 0 .163-.086.756-.337.834-.252 0-.59-.086-.84 0-.165.086-.338.163-.425.335-.165.422.164.757 0 .92-.251.164-.762.422-.927.25-.251-.25-.251-.585-.762-.585-.676 0-.676.671-1.014.671-.338 0-.927-.25-.927-.499.087-.335.252-.585-.086-.92-.425-.336-.927 0-1.1-.164-.252-.163-.338-.584-.252-.834.087-.25.676-.25.676-.92 0-.499-.589-.585-.676-.92-.086-.25.087-.671.338-.757.425-.164.676.163 1.1-.164.252-.25.165-.834.165-1.006.087-.25.424-.335.676-.335.502 0 .337.584 1.013.67.676 0 .59-.249.927-.67.424 0 .762.163.84.335.165.335-.164.834.338 1.17.424.25.84-.086 1.1 0 .165.086.251.335.338.67-.165.49-.927.405-.84 1.162zm-3.04-1.677c-2.028.498-1.266 3.431.675 3.104 1.949-.421 1.69-3.526-.676-3.104zM8.662 8.208c-2.027 0-3.63-1.592-3.63-3.604C5.033 2.59 6.636 1 8.663 1s3.63 1.591 3.63 3.604c0 1.926-1.603 3.604-3.63 3.604zm2.954.834s-1.352 0-1.265.92c.087 1.006-1.265.25-1.516 1.093-.338 1.006.165.834.424 1.505.165.421-.675.67-.589 1.427.165 1.007 1.014.5 1.265 1.093.165.499-.424.834-1.776.834-1.1 0-3.205 0-3.967-.086 0 0-2.192-.086-2.192-1.505 0 0-.087-2.099 1.265-3.604 0 0 1.438-1.84 3.88-1.84l4.47.163z"/></svg>