<svg width="18" height="18"><path d="M2 6.387c0-.25.092-.462.275-.636a.93.93 0 01.662-.26h.938v4.061h-.938a.93.93 0 01-.662-.26A.841.841 0 012 8.656V6.387zM12.414 2.66c.427-.395.814-.612 1.16-.65a1.2 1.2 0 01.923.267c.268.217.496.535.685.954.188.419.342.886.46 1.402.12.515.21 1.054.269 1.618.06.564.089 1.1.089 1.611 0 .51-.037 1.021-.112 1.532a8.85 8.85 0 01-.327 1.438c-.144.448-.312.84-.506 1.178-.193.337-.409.587-.647.751a1 1 0 01-.766.174c-.273-.049-.558-.236-.856-.564-.287-.328-.677-.6-1.168-.817a10.38 10.38 0 00-1.606-.549 17.76 17.76 0 00-1.763-.36 210.37 210.37 0 00-1.637-.247c-.496-.072-.91-.142-1.242-.21-.332-.067-.518-.148-.558-.245V5.42c.04-.135.196-.246.469-.332a8.59 8.59 0 011.041-.246c.422-.077.898-.161 1.428-.253.53-.091 1.071-.217 1.622-.376.55-.158 1.089-.36 1.614-.606a5.747 5.747 0 001.428-.947zm-5.356 8.858c.05.116.11.241.179.376.06.125.139.27.238.434.1.163.218.342.357.534.169.231.34.475.513.73.174.255.305.487.395.694.089.207.116.378.081.513-.034.135-.176.202-.424.202H7.55c-.198 0-.381-.036-.55-.108a1.606 1.606 0 01-.484-.333 4.096 4.096 0 01-.476-.57 12.26 12.26 0 01-.528-.824 4.545 4.545 0 01-.476-.961 4.8 4.8 0 01-.178-.687 1.274 1.274 0 010-.549c.079.01.173.03.282.058l.328.072c.128.03.277.058.446.087.168.039.32.075.454.108.134.034.255.07.364.109.12.038.228.077.327.115z"/></svg>