<?xml version="1.0" standalone="no"?><!DOCTYPE svg PUBLIC "-//W3C//DTD SVG 1.1//EN" "http://www.w3.org/Graphics/SVG/1.1/DTD/svg11.dtd"><svg t="1597132280618" class="icon" viewBox="0 0 1024 1024" version="1.1" xmlns="http://www.w3.org/2000/svg" p-id="2363" xmlns:xlink="http://www.w3.org/1999/xlink" width="200" height="200"><defs><style type="text/css"></style></defs><path d="M794.819048 476.598857a325.632 325.632 0 1 1-267.312762-251.367619l82.407619-84.943238a427.690667 427.690667 0 1 0 271.213714 266.337524z m25.014857-369.322667c2.389333 26.526476 4.87619 53.00419 6.875428 79.579429a10.48381 10.48381 0 0 0 11.849143 11.459048c42.22781 3.413333 84.406857 7.363048 126.780953 11.215238a15.896381 15.896381 0 0 1 9.898666 1.755428 14.189714 14.189714 0 0 1-5.753905 7.168L814.32381 374.00381a17.310476 17.310476 0 0 1-15.555048 5.851428c-27.160381-2.779429-54.418286-4.87619-81.578667-7.704381a16.920381 16.920381 0 0 0-15.555047 5.510095c-69.973333 70.314667-68.608 68.754286-138.630096 138.971429a39.009524 39.009524 0 0 1-41.691428 12.580571 38.13181 38.13181 0 0 1-19.065905-60.318476 104.984381 104.984381 0 0 1 8.630857-9.167238c68.900571-68.900571 66.121143-66.218667 135.168-134.972952a19.504762 19.504762 0 0 0 6.631619-18.188191c-3.218286-27.452952-4.87619-55.100952-7.606857-82.895238a12.434286 12.434286 0 0 1 3.852191-11.117714q81.237333-80.847238 162.133333-161.987048A25.161143 25.161143 0 0 1 814.32381 48.761905c1.852952 20.23619 3.657143 39.302095 5.363809 58.514285z m-164.08381 440.076191a178.761143 178.761143 0 1 1-136.045714-173.836191l-26.624 26.331429-43.300571 43.300571a107.27619 107.27619 0 1 0 132.486095 124.099048l38.66819-38.716952 28.525715-28.574476a179.248762 179.248762 0 0 1 6.290285 47.201523z" fill="#808080" p-id="2364"></path></svg>