<svg width="18" height="18"><path d="M16.282 7.01v2.494l.591.526-1.234 1.14-1.249-1.106.856-.69V7.405c-3.6 1.427-4.795 1.918-5.6 2.241-.807.322-1.387.32-2.185.053S2.919 8.029.973 7.223c-1.26-.534-1.34-.872.02-1.326 1.778-.6 4.717-2.029 6.276-2.552.922-.33 1.41-.51 2.256-.135 1.512.553 4.966 2.174 6.683 2.803 1.496.576.49.765.074.998M9.82 10.602c.878-.322 2.063-1.001 3.354-1.492v5.316S11.504 16 8.569 16c-3.161 0-4.868-1.574-4.868-1.574V9.374c.996.36 2.116.817 3.47 1.228.834.264 1.893.355 2.65 0"/></svg>