<svg width="15" height="16"><path d="M11.707 13.934c0 .517-.41.937-.914.937H4.207a.927.927 0 01-.914-.937V3.99h8.414v9.944zM5.121 2.31c0-.108.082-.192.188-.192h4.394c.106 0 .188.084.188.192v.564H5.12V2.31zM14.449 2H10.98v-.603C10.98.628 10.406 0 9.703 0H5.31c-.705 0-1.28.628-1.28 1.396v.602H.551c-.305 0-.551.27-.551.602 0 .334.246.603.55.603h1.641v10.594c0 1.217.903 2.203 2.016 2.203h6.586c1.113 0 2.016-.986 2.016-2.203V3.19h1.64c.305 0 .551-.27.551-.602 0-.333-.246-.59-.55-.59zM7.5 13.177c.305 0 .55-.252.55-.565V6.608a.557.557 0 00-.55-.564.557.557 0 00-.55.564v6.005c0 .313.245.565.55.565m-1.95 0a.558.558 0 00.552-.565V6.608a.557.557 0 00-.551-.564.557.557 0 00-.551.564v6.005c0 .313.246.565.55.565m3.95-.044c.277 0 .5-.252.5-.565V6.564C10 6.252 9.777 6 9.5 6s-.5.252-.5.564v6.005c0 .313.223.565.5.565"/></svg>