<svg width="15" height="15"><path d="M14.06 0H.94A.938.938 0 000 .938v13.124A.939.939 0 00.94 15h9.635a.47.47 0 000-.94H1.41a.47.47 0 01-.47-.47V1.408c0-.26.21-.47.47-.47h12.18a.47.47 0 01.47.47V14.53a.47.47 0 00.94 0V.938A.939.939 0 0014.06 0zM3.5 6a.5.5 0 00.5.5h6.5a.485.485 0 00.221-.052.5.5 0 00.429-.847L9.734 4.185a.5.5 0 10-.707.707l.608.608H4a.5.5 0 00-.5.5zM11 8.5H4.313a.524.524 0 00-.224.053.512.512 0 00-.579.505c0 .135.054.265.15.36l1.454 1.44a.517.517 0 00.726 0 .507.507 0 000-.72l-.627-.624h5.792a.5.5 0 00.5-.5V9A.503.503 0 0011 8.5z" fill="#4E9BFF"/></svg>