<?xml version="1.0" standalone="no"?><!DOCTYPE svg PUBLIC "-//W3C//DTD SVG 1.1//EN" "http://www.w3.org/Graphics/SVG/1.1/DTD/svg11.dtd"><svg t="1595929425561" class="icon" viewBox="0 0 1024 1024" version="1.1" xmlns="http://www.w3.org/2000/svg" p-id="2052" xmlns:xlink="http://www.w3.org/1999/xlink" width="200" height="200"><defs><style type="text/css"></style></defs><path d="M981.333333 930.133333H42.666667c-25.6 0-42.666667 17.066667-42.666667 42.666667s17.066667 51.2 42.666667 51.2h938.666666c25.6 0 42.666667-17.066667 42.666667-42.666667s-17.066667-51.2-42.666667-51.2zM477.866667 836.266667c8.533333 8.533333 17.066667 17.066667 34.133333 17.066666s25.6-8.533333 34.133333-17.066666l332.8-332.8c17.066667-17.066667 17.066667-42.666667 0-59.733334-17.066667-17.066667-42.666667-17.066667-59.733333 0l-256 256V42.666667C554.666667 17.066667 537.6 0 512 0s-42.666667 17.066667-42.666667 42.666667v657.066666l-256-256c-17.066667-17.066667-42.666667-17.066667-59.733333 0-17.066667 17.066667-17.066667 42.666667 0 59.733334l324.266667 332.8z" p-id="2053"></path></svg>