<svg width="16" height="16"><path d="M4.475 14a.507.507 0 01-.37-.156l-2.948-2.948a.524.524 0 010-.747l9.68-9.685a1.556 1.556 0 012.218 0l1.476 1.477c.3.3.469.694.469 1.107 0 .412-.168.804-.469 1.106l-9.686 9.69a.51.51 0 01-.37.156zm-2.2-3.475l2.2 2.2 9.31-9.315a.515.515 0 00.164-.364.515.515 0 00-.163-.365l-1.47-1.47a.493.493 0 00-.73 0l-9.31 9.314z"/><path d="M.528 14.772a.53.53 0 01-.378-.159.513.513 0 01-.13-.508l1.272-3.994a.54.54 0 01.378-.35.529.529 0 01.502.136l2.968 2.868a.504.504 0 01-.232.856L.665 14.748c-.046.01-.092.023-.138.023zm1.522-3.546l-.729 2.29 2.432-.65-1.703-1.64zm7.633-8.684L10.244 2l2.968 2.868-.56.542-2.969-2.868zM8.197 3.973l.56-.542 2.969 2.87-.561.542-2.968-2.87zm6.61 12H.819a.506.506 0 01-.508-.5c0-.274.23-.5.508-.5h13.984c.279 0 .508.226.508.5a.494.494 0 01-.502.5z"/></svg>