<?xml version="1.0" encoding="UTF-8"?>
<svg width="13px" height="13px" viewBox="0 0 13 13" version="1.1" xmlns="http://www.w3.org/2000/svg" xmlns:xlink="http://www.w3.org/1999/xlink">
    <!-- Generator: Sketch 63 (92445) - https://sketch.com -->
    <title>图标-表头管理</title>
    <desc>Created with Sketch.</desc>
    <g id="图标页面" stroke="none" stroke-width="1" fill="none" fill-rule="evenodd">
        <g id="画板" transform="translate(-429.000000, -43.000000)" fill="#333333" fill-rule="nonzero">
            <g id="表头管理" transform="translate(420.000000, 33.000000)">
                <path d="M9.90909962,11.0000176 L18.0909004,11.0000176 C18.592976,11.0000176 19,11.2238679 19,11.5 C19,11.6326115 18.9042201,11.7597873 18.7337309,11.8535547 C18.5632416,11.947322 18.3320086,12 18.0909004,12 L9.90909962,12 C9.66798864,12 9.43675318,11.9473208 9.26626347,11.8535516 C9.09577376,11.7597823 9,11.6326042 9,11.5 C9,11.2238557 9.40701777,11 9.90909962,11 L9.90909962,11.0000176 Z M9.90909962,16 L18.0909004,16 C18.5929822,16 19,16.2238596 19,16.5 C19,16.7761458 18.592976,17 18.0909004,17 L9.90909962,17 C9.40701777,17 9,16.7761404 9,16.5 C9,16.2238542 9.407024,16 9.90909962,16 Z M20.7121151,21.7771713 L20.7121151,17.3190504 C20.7120743,17.142833 20.5526738,17 20.3560576,17 C20.1594413,17 20.0000408,17.142833 20,17.3190504 L20,22.7058009 C20.0002334,22.7509543 20.0111557,22.7955493 20.0320452,22.8366388 L20.0534086,22.8653593 C20.0725223,22.8940747 20.0965527,22.9199193 20.1246202,22.9419473 C20.1372714,22.9480294 20.150355,22.9533595 20.1637865,22.9579031 C20.2042174,22.9818179 20.2507855,22.9960963 20.2990884,22.9993883 C20.3133161,23.0002039 20.3275875,23.0002039 20.3418153,22.9993883 L20.3631787,22.9993883 C20.4557082,22.9901622 20.5415448,22.9516966 20.6052978,22.8908886 L21.9262714,21.4293341 C22.0038677,21.3386967 22.0216177,21.2178419 21.972835,21.1122948 C21.9240523,21.0067477 21.8161482,20.9325433 21.6897692,20.9176336 C21.5633902,20.902724 21.4377362,20.9493743 21.3601398,21.0400118 L20.7121151,21.7771713 Z M20.3801251,10 C20.4733176,10.0091838 20.5597692,10.0474726 20.623979,10.1080013 L21.9257282,11.5882547 C22.0465411,11.7277245 22.0168386,11.9275397 21.8593856,12.0345543 C21.7019326,12.1415689 21.4763535,12.1152587 21.3555405,11.9757888 L20.7172172,11.2388387 L20.7172172,15.682415 C20.7171761,15.857823 20.5566336,16 20.3586086,16 C20.1605836,16 20.0000411,15.857823 20,15.682415 L20,10.2350617 L20.0215165,10.181061 L20.0573774,10.1334134 C20.072026,10.1149399 20.0888562,10.0979022 20.1075826,10.0825892 C20.1203334,10.0765512 20.1335096,10.071246 20.1470295,10.0667067 C20.1877502,10.0429017 20.2346519,10.028689 20.2833008,10.0254121 C20.3071659,10.0143044 20.3324491,10.0057728 20.3586086,10 L20.3801251,10 Z M9.90909962,21 L18.0909004,21 C18.5929822,21 19,21.2238576 19,21.5 C19,21.7761424 18.5929822,22 18.0909004,22 L9.90909962,22 C9.40701777,22 9,21.7761424 9,21.5 C9,21.2238576 9.40701777,21 9.90909962,21 L9.90909962,21 Z" id="图标-表头管理"></path>
            </g>
        </g>
    </g>
</svg>