<svg width="15" height="15"><path d="M7.396 8.115l-1.15-1.168a.786.786 0 010-1.1l4.27-4.337a1.252 1.252 0 011.79 0l1.207 1.226a1.3 1.3 0 010 1.818L11.596 6.5c-.2.202-.2.53 0 .733.2.202.523.202.722 0l2.08-2.112a2.112 2.112 0 000-2.954L12.865.612a2.034 2.034 0 00-2.908 0L5.523 5.114a1.834 1.834 0 000 2.566l1.15 1.168c.2.203.523.203.723 0a.525.525 0 000-.733z"/><path d="M7.604 6.885l1.15 1.168a.786.786 0 010 1.1l-4.27 4.337a1.252 1.252 0 01-1.79 0l-1.207-1.226a1.3 1.3 0 010-1.818L3.404 8.5c.2-.202.2-.53 0-.733a.505.505 0 00-.722 0L.602 9.878a2.112 2.112 0 000 2.954l1.533 1.556a2.034 2.034 0 002.908 0l4.434-4.502a1.834 1.834 0 000-2.566l-1.15-1.168a.505.505 0 00-.723 0 .525.525 0 000 .733z"/></svg>