<svg width="15" height="16"><path d="M10.3 9.602c.2-.291.1-.68-.2-.776-.4-.29-.9-.582-1.4-.679 1.3-.872 2.1-2.23 2.1-3.78C10.9 2.136 9.1.1 6.7.003 4.3-.093 2.3 1.652 2.2 3.979v.484c0 1.648.9 3.103 2.4 3.878C1.8 9.408 0 12.025 0 14.934c0 .29.3.581.6.581.4 0 .6-.29.6-.678-.1-3.103 2.4-5.623 5.6-5.72.9 0 1.9.29 2.7.678.3.194.7.097.8-.193zM3.4 4.366C3.5 2.718 5 1.458 6.7 1.555c1.7.097 3 1.551 2.9 3.2-.1 1.55-1.5 2.714-3.1 2.714-1.8 0-3.2-1.454-3.1-3.103zM14.5 16c-.3 0-.5-.194-.5-.485v-5.04c0-.292.2-.486.5-.486s.5.194.5.485v5.041c0 .291-.2.485-.5.485zm-2.2 0c-.3 0-.5-.194-.5-.485v-3.199c0-.29.2-.485.5-.485s.5.194.5.485v3.2c0 .29-.2.484-.5.484zm-2.2 0c-.3 0-.5-.194-.5-.485v-4.46c0-.29.2-.484.5-.484s.5.194.5.485v4.46c0 .29-.2.484-.5.484z"/></svg>