<?xml version="1.0" standalone="no"?><!DOCTYPE svg PUBLIC "-//W3C//DTD SVG 1.1//EN" "http://www.w3.org/Graphics/SVG/1.1/DTD/svg11.dtd"><svg t="1600931025477" class="icon" viewBox="0 0 1433 1024" version="1.1" xmlns="http://www.w3.org/2000/svg" p-id="2689" xmlns:xlink="http://www.w3.org/1999/xlink" width="279.8828125" height="200"><defs><style type="text/css"></style></defs><path d="M1173.42042365 141.21735767a65.99297506 65.99297506 0 0 0-39.2991872 13.34689394L950.97219365 289.51617792a162.38720804 162.38720804 0 0 0-163.12870262-148.29882023H372.60679434A163.87019649 163.87019649 0 0 0 209.47809244 304.3460603v415.23669596a163.87019649 163.87019649 0 0 0 163.1287019 163.05455288h415.23669668a163.1287019 163.1287019 0 0 0 163.12870263-148.29882027l185.37352511 139.40089098a68.21745738 68.21745738 0 0 0 37.0747049 8.89792929 74.14940976 74.14940976 0 0 0 74.14941046-74.14940977V215.36676816a74.14940976 74.14940976 0 0 0-74.14941046-74.14941049zM431.92632243 437.81499817a74.14940976 74.14940976 0 1 1 0-148.29882025 74.14940976 74.14940976 0 0 1 0 148.29882023z" p-id="2690"></path></svg>