<svg width="13" height="15"><path d="M12.917 10.044c-.156-.213-.48-.275-.721-.137l-5.71 3.25L.803 9.923c-.241-.138-.565-.076-.721.137-.156.213-.085.5.156.637L6.18 14.08a.582.582 0 00.134.061l.007.003.011.003c.006.002.011.004.016.004h.002a.63.63 0 00.122.016h.023a.613.613 0 00.122-.016h.001a.059.059 0 01.017-.004c.003-.001.007-.001.01-.003.004-.001.006-.001.008-.003a.582.582 0 00.134-.06l5.973-3.4c.243-.138.312-.424.156-.637z"/><path d="M12.917 7.044c-.156-.213-.48-.275-.721-.137l-5.71 3.248L.803 6.923c-.241-.138-.565-.076-.721.137-.156.213-.085.5.156.637L6.18 11.08a.583.583 0 00.134.061l.007.003.011.003c.006.002.011.004.016.004h.002a.63.63 0 00.122.016h.023a.613.613 0 00.122-.016h.001c.006-.002.011-.004.017-.004.003-.001.007-.001.01-.003.004-.001.006-.001.008-.003a.583.583 0 00.134-.06l5.971-3.398c.245-.14.314-.426.158-.639z"/><path d="M12.76 4.04L6.789.1a.548.548 0 00-.134-.07L6.647.026l-.01-.004A.052.052 0 006.62.02h-.002A.551.551 0 006.497 0h-.024a.535.535 0 00-.121.019H6.35a.051.051 0 01-.016.003l-.011.004c-.004.002-.006.002-.007.004A.548.548 0 006.18.1L.238 4.021a.535.535 0 00-.237.479.537.537 0 00.237.479l5.943 3.92c.042.03.087.055.135.071l.007.004.01.004.017.003h.002A.55.55 0 006.473 9h.024a.535.535 0 00.121-.019h.002a.051.051 0 01.016-.003l.011-.004c.004-.002.006-.002.007-.004a.548.548 0 00.135-.07l5.972-3.94A.537.537 0 0013 4.5a.537.537 0 00-.24-.46z"/></svg>