<?xml version="1.0" standalone="no"?><!DOCTYPE svg PUBLIC "-//W3C//DTD SVG 1.1//EN" "http://www.w3.org/Graphics/SVG/1.1/DTD/svg11.dtd"><svg t="1600931014416" class="icon" viewBox="0 0 1024 1024" version="1.1" xmlns="http://www.w3.org/2000/svg" p-id="2296" xmlns:xlink="http://www.w3.org/1999/xlink" width="200" height="200"><defs><style type="text/css"></style></defs><path d="M702.08482108 210.66071405H261.64732108C216.86830393 210.66071405 180.52678595 254.05357107 180.52678595 307.390625v529.75446405C180.52678595 890.48214297 216.98883905 933.875 261.64732108 933.875h440.43749999C746.86383905 933.875 783.20535703 890.48214297 783.20535703 837.14508905v-529.75446405C783.20535703 254.05357107 746.86383905 210.66071405 702.08482108 210.66071405z m-39.05357108 249.68973203H300.70089298V370.18973202h362.33035702v90.16071405z m0 202.13839298H300.70089298V572.26785702h362.33035702v90.22098203z" p-id="2297"></path><path d="M718.65848203 90.125h-398.37053595C271.16964297 90.125 189.50669608 134.48214298 188.54241095 197.82366095L180.52678595 261.40625c7.05133906-23.86607108 21.81696405-47.43080392 39.35491013-58.88169608 12.65625-29.71205392 44.17633906-53.33705392 123.60937499-54.36160785 117.46205392-1.44642893 379.02455392 3.01339297 379.02455393 3.01339299s75.75669607 0.96428595 78.77008905 122.58482189c1.44642893 59.42410702 2.22991095 421.875 3.73660702 599.84598203 23.203125-19.58705392 38.45089298-52.43303595 38.45089298-89.2566969V247.84598203C843.47321405 187.93973203 816.11160703 93.25892893 718.65848203 90.125z" p-id="2298"></path></svg>