<?xml version="1.0" standalone="no"?><!DOCTYPE svg PUBLIC "-//W3C//DTD SVG 1.1//EN" "http://www.w3.org/Graphics/SVG/1.1/DTD/svg11.dtd"><svg t="1600931022160" class="icon" viewBox="0 0 1024 1024" version="1.1" xmlns="http://www.w3.org/2000/svg" p-id="2557" xmlns:xlink="http://www.w3.org/1999/xlink" width="200" height="200"><defs><style type="text/css"></style></defs><path d="M872.79678125 690.25624999c-8.775-11.98125001-27-15.46874973-40.55625027-7.70624972l-321.18749946 182.81249945L191.38428125 683.44999972c-13.55625027-7.7625-31.78125027-4.27500027-40.55625027 7.70625055-8.775 11.98125001-4.78125027 28.12499973 8.775 35.83124945L493.84053152 917.28125027a32.7375 32.7375 0 0 0 7.53749973 3.43124945l0.39375026 0.16875 0.61874974 0.16875c0.3375 0.11249973 0.61874973 0.22500027 0.90000027 0.22500027h0.11249973a35.4375 35.4375 0 0 0 6.86249973 0.90000028h1.29375053a34.48125027 34.48125027 0 0 0 6.86249974-0.90000028h0.05625027a3.31874973 3.31874973 0 0 1 0.95624973-0.22500027c0.16875001-0.05625027 0.39375027-0.05625027 0.56250026-0.16875 0.22500027-0.05625027 0.3375-0.05625027 0.44999974-0.16875a32.7375 32.7375 0 0 0 7.53749973-3.375l335.98125-191.24999945c13.66875001-7.7625 17.55-23.85000027 8.775-35.83125028z" p-id="2558"></path><path d="M872.79678125 521.50624999c-8.775-11.98125001-27-15.46874973-40.55625027-7.70624972l-321.18749946 182.69999972L191.38428125 514.69999972c-13.55625027-7.7625-31.78125027-4.27500027-40.55625027 7.70625055-8.775 11.98125001-4.78125027 28.12499973 8.775 35.83124945L493.84053152 748.53125027a32.79375027 32.79375027 0 0 0 7.53749973 3.43124945l0.39375026 0.16875 0.61874974 0.16875c0.3375 0.11249973 0.61874973 0.22500027 0.90000027 0.22500027h0.11249973a35.4375 35.4375 0 0 0 6.86249973 0.90000028h1.29375053a34.48125027 34.48125027 0 0 0 6.86249974-0.90000028h0.05625027c0.3375-0.11249973 0.61874973-0.22500027 0.95624973-0.22500027 0.16875001-0.05625027 0.39375027-0.05625027 0.56250026-0.16875 0.22500027-0.05625027 0.3375-0.05625027 0.44999974-0.16875a32.79375027 32.79375027 0 0 0 7.53749973-3.375l335.86875027-191.13749973c13.78124973-7.87499973 17.66249973-23.9625 8.88749973-35.94375z" p-id="2559"></path><path d="M887.42989971 339.5562497L529.16990029 103.15625028a32.87999971 32.87999971 0 0 0-8.04000058-4.20000029L520.6499 98.7162497l-0.60000029-0.23999942A3.12000029 3.12000029 0 0 0 519.0299 98.35624971h-0.11999971A33.05999971 33.05999971 0 0 0 511.6499 97.15624999h-1.44a32.10000029 32.10000029 0 0 0-7.26000029 1.14000029H502.8299a3.06 3.06 0 0 1-0.96000029 0.18l-0.65999971 0.23999942c-0.24000029 0.11999971-0.36 0.11999971-0.42000029 0.24000029A32.87999971 32.87999971 0 0 0 492.62990029 103.15625028L136.10989971 338.41625029a32.10000029 32.10000029 0 0 0-14.22 28.73999972 32.22 32.22 0 0 0 14.22 28.7399997l356.58 235.20000058c2.52 1.8 5.22 3.30000029 8.1 4.2599997l0.42000029 0.24000029 0.60000029 0.23999942 1.01999971 0.18h0.11999971A33.00000029 33.00000029 0 0 0 510.2099 637.15625001h1.44a32.10000029 32.10000029 0 0 0 7.26000029-1.14000031h0.11999971a3.06 3.06 0 0 1 0.96000029-0.18l0.65999971-0.23999942c0.24000029-0.11999971 0.36-0.11999971 0.42000029-0.24000029a32.87999971 32.87999971 0 0 0 8.1-4.20000029l358.31999971-236.39999942A32.22 32.22 0 0 0 901.82989971 367.15624999a32.22 32.22 0 0 0-14.4-27.60000029z" p-id="2560"></path></svg>