<?xml version="1.0" standalone="no"?><!DOCTYPE svg PUBLIC "-//W3C//DTD SVG 1.1//EN" "http://www.w3.org/Graphics/SVG/1.1/DTD/svg11.dtd"><svg t="1590722077169" class="icon" viewBox="0 0 1103 1024" version="1.1" xmlns="http://www.w3.org/2000/svg" p-id="2535" xmlns:xlink="http://www.w3.org/1999/xlink" width="215.4296875" height="200"><defs><style type="text/css"></style></defs><path d="M1077.501899 418.185846c-1.39159 2.678154-2.940718 5.251282-4.621128 7.745641a60.468513 60.468513 0 0 1-49.125743 26.25641h-2.993231a1028.542359 1028.542359 0 0 1-178.989949-18.878359c-11.815385-2.048-22.317949-3.780923-32.899282-5.382564a61.781333 61.781333 0 0 1-48.836923-43.848205l-2.835692-9.058461c-26.25641-85.280821-32.479179-105.550769-111.405949-111.379693-25.915077-1.942974-52.250256-2.888205-78.349128-2.888205-103.896615 0-181.956923 15.044923-190.227692 24.497231a99.643077 99.643077 0 0 0-7.168 31.08759 193.772308 193.772308 0 0 1-30.089847 89.74441c-8.979692 12.865641-22.396718 21.792821-37.546666 24.917333a1326.368821 1326.368821 0 0 1-211.442872 27.464205h-0.525128c-16.01641 0-31.350154-6.564103-42.614154-18.274461a195.741538 195.741538 0 0 1-46.027487-154.702769 291.131077 291.131077 0 0 1 46.578871-138.817641c3.045744-4.332308 6.196513-8.402051 9.347283-12.130462 34.133333-40.067282 112.377436-70.262154 172.005743-88.562872a1301.346462 1301.346462 0 0 1 223.704616-40.828718 1088.039385 1088.039385 0 0 1 414.536205 40.172308l18.379487 5.933949c67.899077 21.582769 131.938462 42.194051 164.365128 84.545641 58.131692 82.182564 68.371692 190.227692 26.781538 282.387692z m-67.531487-247.545436c-22.291692-29.144615-81.473641-48.101744-138.765128-66.428718l-18.694564-6.038974a965.054359 965.054359 0 0 0-293.494154-42.167795c-33.529436 0-67.636513 1.470359-101.376 4.306051-72.021333 6.721641-143.36 19.692308-213.254564 38.806975-72.887795 22.344205-128.052513 49.362051-147.534769 72.257641-2.048 2.468103-4.279795 5.251282-6.380308 8.270769a231.266462 231.266462 0 0 0-36.443897 110.565744 140.65559 140.65559 0 0 0 30.35241 110.565743c1.575385 1.732923 3.754667 2.70441 6.038974 2.70441v27.621744-27.621744a1272.989538 1272.989538 0 0 0 202.043077-26.755282 8.612103 8.612103 0 0 0 5.251282-3.597128 141.758359 141.758359 0 0 0 20.296205-64.538256 125.505641 125.505641 0 0 1 17.11918-56.451282c21.792821-30.982564 117.287385-46.657641 232.106667-46.657641 27.359179 0 54.954667 1.024 82.051282 3.045743 114.215385 8.428308 130.494359 61.44 157.407179 149.320205l2.835692 9.084718c0.945231 3.360821 3.675897 5.855179 7.036718 6.380308 10.765128 1.732923 21.398974 3.492103 32.11159 5.382564 56.661333 11.106462 114.136615 17.276718 171.795692 18.432h2.888206a8.795897 8.795897 0 0 0 7.010461-3.754667 231.345231 231.345231 0 0 0-20.401231-222.733128zM368.368771 435.935179v-32.242871a50.149744 50.149744 0 0 1 14.020923-39.384616 47.261538 47.261538 0 0 1 38.439385-14.073436h52.486564a47.261538 47.261538 0 0 1 38.439385 14.073436c10.134974 10.345026 15.281231 24.759795 14.020923 39.384616v28.094359h52.486564v-28.094359a50.149744 50.149744 0 0 1 14.020923-39.384616 47.261538 47.261538 0 0 1 38.439385-14.073436h52.486564a47.261538 47.261538 0 0 1 38.439384 14.073436c10.134974 10.345026 15.281231 24.759795 14.020923 39.384616v32.242871l259.229539 272.541539 29.433436 55.821128v176.915692c0 35.078564-40.382359 56.635077-69.34318 56.635077H137.417387c-31.113846 0.682667-56.923897-24.628513-57.71159-56.635077V764.324103l33.739487-62.017641 254.897231-266.345026z m-236.307692 505.278359a5.723897 5.723897 0 0 0 5.251282 2.546872h817.545846c6.091487-0.472615 11.92041-2.678154 16.856616-6.354051v-159.323897l-21.320206-40.434872-267.342769-279.552v-53.930667h-52.486564v81.421128h-157.03959v-27.490461h-0.210051v-53.930667h-52.486564v53.930667L153.460053 737.595077l-21.320205 40.461128v163.157333h-0.078769zM551.848566 539.569231c101.428513 0 183.66359 84.545641 183.66359 188.78359 0 104.264205-82.235077 188.78359-183.66359 188.783589s-183.637333-84.519385-183.637333-188.783589c0.052513-104.342974 82.313846-188.888615 183.821128-188.941129l-0.183795 0.157539z m0 326.682256c74.148103 0.026256 134.249026-61.702564 134.301539-137.924923 0-76.196103-60.04841-137.977436-134.170257-138.029949-74.121846-0.026256-134.249026 61.702564-134.301538 137.898667 0.157538 76.196103 60.232205 137.898667 134.354051 137.95118l-0.183795 0.105025z m0-245.418666c57.974154 0 104.946872 48.311795 104.946872 107.861333 0 59.602051-46.998974 107.913846-104.946872 107.913846s-104.946872-48.311795-104.946872-107.913846c0.078769-59.654564 47.130256-107.966359 105.156923-107.966359l-0.210051 0.105026z m0 161.503179c28.829538-0.026256 52.145231-24.077128 52.118975-53.694359-0.026256-29.590974-23.394462-53.589333-52.224-53.563077-28.803282 0-52.145231 24.024615-52.145231 53.61559 0.157538 29.669744 23.630769 53.563077 52.460307 53.431795l-0.210051 0.210051z" p-id="2536"></path></svg>