<?xml version="1.0" encoding="UTF-8"?>
<svg width="17px" height="15px" viewBox="0 0 17 15" version="1.1" xmlns="http://www.w3.org/2000/svg" xmlns:xlink="http://www.w3.org/1999/xlink">
    <!-- Generator: Sketch 63 (92445) - https://sketch.com -->
    <title>图标-座机外拨</title>
    <desc>Created with Sketch.</desc>
    <g id="图标页面" stroke="none" stroke-width="1" fill="none" fill-rule="evenodd">
        <g id="操作栏图标" transform="translate(-463.000000, -106.000000)" fill="#0773FF" fill-rule="nonzero">
            <g id="图标-座机外拨" transform="translate(463.000000, 105.000000)">
                <g id="编组" transform="translate(0.000000, 0.750000)">
                    <path d="M0.05,10.1816013 C0.0774773119,10.1816013 0.0998064986,10.1593517 0.1,10.131778 C0.1,10.1040662 0.0776142375,10.0816013 0.05,10.0816013 C0.0223857625,10.0816013 -1.77635684e-15,10.1040662 -1.77635684e-15,10.131778 C0.000193501389,10.1593517 0.0225226881,10.1816013 0.05,10.1816013 Z M13.8785476,15.249979 L6.07915121,15.249979 C5.78315982,15.2512599 5.49015173,15.1938415 5.21893713,15.0813882 C5.15487863,15.0548268 4.58365988,14.8048375 4.23573074,14.242535 C3.85137977,13.6201657 3.93941445,12.9330423 4.07649962,12.3440049 C4.33126942,11.2503015 4.76375577,10.4170037 5.63678155,8.96012138 C6.92820081,6.80552575 7.33890728,6.38557837 7.90994302,5.99462283 C8.8334835,5.36287893 9.58113765,5.25715428 9.94462386,5.25038373 C10.2834018,5.244134 10.9818224,5.30923539 11.8548482,5.81719983 C12.373356,6.11840226 13.0060709,6.62532509 14.5207797,9.16358493 C15.412291,10.657792 15.736793,11.3921357 15.9097509,12.3089369 C16.1244384,13.44743 15.9150586,13.9449783 15.7084243,14.2513888 C15.088521,15.1714885 14.0062985,15.244402 13.8855025,15.2497838 L13.8785476,15.249979 Z M8.26574221,6.46109598 C7.80946269,6.77358266 7.44011972,7.11644999 6.16480658,9.24465785 C5.22040134,10.8209795 4.88491785,11.5433446 4.66913223,12.4686523 C4.55163064,12.9721031 4.48116629,13.5015944 4.75972923,13.9515752 C5.01376693,14.362148 5.45979708,14.5536329 5.46418966,14.5553689 C5.65820994,14.6357332 5.86780748,14.6767132 6.07951727,14.6756955 L13.8640887,14.6756955 C13.9788449,14.6697738 14.7512073,14.6051932 15.1970544,13.9423742 C15.3434739,13.7241544 15.4898933,13.3521216 15.3121767,12.4103215 C15.1531286,11.5676491 14.8447327,10.8753175 13.9923887,9.44690618 C12.5494253,7.0277385 11.9686893,6.55761966 11.5374841,6.30693589 C11.2812501,6.1578103 10.6144927,5.81233893 9.95597136,5.82483839 C9.71987004,5.82917849 9.08422674,5.9000088 8.26574221,6.46109598 Z" id="形状"></path>
                    <path d="M9.9984725,13.2500001 C8.89410251,13.2491527 7.99943843,12.3533499 8.00000026,11.2489804 C8.00056262,10.1446109 8.89613811,9.24971925 10.0005084,9.25000007 C11.1048787,9.25028102 12.0000003,10.1456281 12.0000003,11.2500001 C12.0000572,11.7807128 11.7891526,12.2896854 11.413737,12.6648143 C11.0383214,13.0399433 10.5291876,13.2504592 9.9984725,13.2500001 L9.9984725,13.2500001 Z M9.9984725,9.97215323 C9.29293812,9.97299764 8.72159406,10.5454804 8.72215563,11.2510147 C8.72271802,11.9565489 9.29497335,12.5281208 10.0005082,12.5278402 C10.706043,12.5275593 11.2778438,11.9555322 11.2778438,11.2499977 C11.277902,10.9108101 11.1430814,10.5855202 10.9030961,10.3458216 C10.6631109,10.106123 10.3376601,9.97169105 9.9984725,9.97215323 L9.9984725,9.97215323 Z" id="形状"></path>
                    <path d="M3.74240869,7.24998894 L3.73928673,7.24998894 C3.60758623,7.2488255 3.47679814,7.22694466 3.35129491,7.185075 C2.43031299,6.87597503 1.97519876,5.50448028 2.00104175,4.63427294 C2.02879262,3.69042708 2.62040642,2.76149076 3.71136242,1.94983061 C4.55204026,1.32435773 5.66450318,0.795433128 6.68729609,0.535425512 C7.67002369,0.28578183 8.65968901,0.267963127 9.31443604,0.256508239 C10.0409884,0.243416946 10.8646689,0.228507425 11.9122641,0.445786529 L11.9226707,0.447968402 C12.7872837,0.627791855 14.0936558,0.899618004 15.3197238,1.95346709 C15.6319211,2.22147494 16.0190457,2.55548474 16.3489341,2.99277027 C16.7478528,3.52242217 16.9653503,4.09152976 16.9960496,4.68481989 C17.0250146,5.24247259 16.8945855,5.79848889 16.6084047,6.33795927 C16.4532951,6.70737378 16.1700902,7.00120813 15.8161174,7.15998335 C15.7667048,7.18226013 15.7123086,7.18950636 15.6591516,7.18089306 C15.2796367,7.12047856 14.962905,6.84543701 14.8356446,6.46578119 C14.6795387,6.21590682 14.5091975,5.97613106 14.325549,5.74776014 C13.2458668,4.40735722 11.9391478,3.75133798 11.0320413,3.43860153 C10.1063764,3.11786486 9.48597109,3.11731939 9.31773145,3.12477416 C8.97410928,3.13972073 8.63273538,3.1902097 8.29858083,3.27550584 C8.28453196,3.27914232 6.82813173,3.67097198 5.46192183,5.05337614 C5.2370427,5.28489488 5.02487036,5.52959803 4.82642697,5.78630673 C4.69513068,5.95812995 4.61326562,6.08122446 4.59557444,6.10740705 C4.51872251,6.23969827 4.44889231,6.3763342 4.38640228,6.51669177 C4.34646557,6.67241431 4.27619001,6.81777563 4.18000519,6.94361338 C4.09910548,7.04867173 4.00124444,7.1380299 3.89087584,7.20762112 C3.84596256,7.23558403 3.79464522,7.25022735 3.74240869,7.24998894 L3.74240869,7.24998894 Z M9.8581796,0.851616596 C9.67363634,0.851616596 9.49620422,0.854889424 9.32449573,0.857980429 C8.69489791,0.869253494 7.74339003,0.886526728 6.82275501,1.12053358 C5.86691106,1.36344978 4.82816139,1.85710062 4.04385251,2.44057227 C3.38910547,2.92785928 2.6028887,3.70733667 2.57479095,4.65281896 C2.56421092,5.01646598 2.66151241,5.47266117 2.83027237,5.84376296 C3.01429531,6.24886574 3.26162491,6.521601 3.52681915,6.61251276 C3.57020262,6.62703539 3.61480455,6.63720262 3.66002332,6.64287729 C3.68663353,6.6197108 3.71097775,6.59382484 3.73269589,6.56560231 C3.78206131,6.50099498 3.81718408,6.42574089 3.83554755,6.3452322 C3.83955582,6.32612946 3.84536582,6.3074918 3.85289184,6.2895942 C3.92865578,6.11652053 4.0141994,5.9483382 4.10906703,5.78594307 C4.1113218,5.78194295 4.11374999,5.77794283 4.11635164,5.77412455 C4.11895329,5.77030628 4.21347967,5.62412016 4.37651602,5.41047753 C4.59028035,5.13316217 4.81920455,4.86907481 5.06213589,4.61954525 C6.54541976,3.1182285 8.09565261,2.7067619 8.16086715,2.69003413 C8.53222851,2.59483968 8.91166045,2.53838143 9.29362289,2.52148374 C9.54077905,2.51075616 10.2218894,2.52148374 11.2129423,2.86549382 C12.1897728,3.20404919 13.5989965,3.91170631 14.7648799,5.36011241 C14.9718149,5.61754182 15.162985,5.88845596 15.3372415,6.17122709 C15.351398,6.19450104 15.3624285,6.21970841 15.3700222,6.24613839 C15.4137239,6.39769938 15.5253033,6.51731783 15.6688644,6.56651142 C15.8561697,6.46017371 16.0036656,6.29055638 16.0873822,6.08522458 C16.0915448,6.07558794 16.0958809,6.0659513 16.1009107,6.05667828 C16.3378338,5.61430168 16.4453684,5.16356119 16.4231677,4.71700264 C16.3673191,3.63060716 15.5174487,2.90131306 14.956014,2.41820798 C13.840776,1.46036171 12.6665674,1.21690004 11.8106266,1.03871299 L11.8003935,1.0363493 C11.0561499,0.881617496 10.4234301,0.851616596 9.8581796,0.851616596 Z" id="形状"></path>
                </g>
            </g>
        </g>
    </g>
</svg>