<svg width="17" height="15"><g fill="#0773FF"><path d="M.05 9.932a.05.05 0 100-.1.05.05 0 000 .1zM13.879 15h-7.8a2.223 2.223 0 01-.86-.169 2.278 2.278 0 01-.983-.838c-.385-.623-.297-1.31-.16-1.899.255-1.094.688-1.927 1.56-3.384C6.929 6.556 7.34 6.136 7.91 5.745c.923-.632 1.67-.738 2.035-.745.338-.006 1.037.06 1.91.567.518.301 1.151.808 2.666 3.347.891 1.494 1.216 2.228 1.389 3.145.214 1.138.005 1.636-.202 1.942-.62.92-1.702.993-1.822.999h-.007zM8.266 6.211c-.457.313-.826.655-2.101 2.784-.945 1.576-1.28 2.298-1.496 3.224-.117.503-.188 1.033.09 1.483.255.41.7.602.705.603.194.08.404.122.616.12h7.784c.115-.005.887-.07 1.333-.733.146-.218.293-.59.115-1.532-.159-.842-.467-1.535-1.32-2.963-1.443-2.42-2.023-2.89-2.455-3.14-.256-.15-.923-.495-1.581-.482-.236.004-.872.075-1.69.636z"/><path d="M9.998 13a2 2 0 11.004-4 2 2 0 01-.004 4zm0-3.278a1.278 1.278 0 10.004 2.556 1.278 1.278 0 00-.004-2.556zM3.742 7H3.74a1.26 1.26 0 01-.388-.065c-.92-.309-1.376-1.68-1.35-2.55.028-.945.62-1.874 1.71-2.685A8.94 8.94 0 016.687.285C7.67.035 8.66.018 9.314.007c.727-.014 1.55-.028 2.598.189l.01.002c.865.18 2.172.452 3.398 1.505.312.268.699.602 1.029 1.04.399.53.616 1.099.647 1.692a3.147 3.147 0 01-.388 1.653c-.155.37-.438.663-.792.822a.274.274 0 01-.157.02 1.052 1.052 0 01-.823-.714 7.274 7.274 0 00-3.804-3.027c-.926-.321-1.546-.322-1.714-.314a4.998 4.998 0 00-1.02.15c-.013.004-1.47.396-2.836 1.778a8.607 8.607 0 00-.636.733c-.13.172-.213.295-.23.321a4.282 4.282 0 00-.21.41 1.19 1.19 0 01-.206.427c-.08.105-.179.194-.29.264A.278.278 0 013.743 7zM9.858.602c-.184 0-.362.003-.534.006-.63.011-1.58.029-2.501.263a8.347 8.347 0 00-2.78 1.32c-.654.487-1.44 1.266-1.468 2.212-.01.363.087.82.255 1.19.184.406.432.679.697.77a.69.69 0 00.133.03.535.535 0 00.176-.298.305.305 0 01.017-.055 4.87 4.87 0 01.263-.516c.003-.004.097-.15.26-.364.214-.277.443-.54.686-.79 1.483-1.502 3.034-1.913 3.099-1.93.371-.095.75-.152 1.133-.169.247-.01.928 0 1.919.344a7.862 7.862 0 014.124 3.306.308.308 0 01.033.075.475.475 0 00.299.32.974.974 0 00.432-.51c.237-.442.344-.892.322-1.339-.056-1.086-.906-1.816-1.467-2.299-1.115-.958-2.29-1.201-3.145-1.38L11.8.787A9.23 9.23 0 009.857.602z"/></g></svg>