<svg width="16" height="15"><g fill="none"><rect fill="#4E9BFF" x="8" y="8" width="8" height="1" rx=".5"/><rect fill="#4E9BFF" x="8" y="10" width="8" height="1" rx=".5"/><rect fill="#4E9BFF" x="8" y="12" width="8" height="1" rx=".5"/><path d="M1.895 14.94C.851 14.94 0 14.135 0 13.145v-.04A6.205 6.205 0 011.26 9.45a6.867 6.867 0 013.205-2.337l.34-.12-.325-.19-.006-.005A4.018 4.018 0 013.37 5.446a3.58 3.58 0 01-.38-1.673c.017-1 .443-1.95 1.197-2.67A4.026 4.026 0 015.43.296 3.89 3.89 0 016.915 0h.045a4.208 4.208 0 012.883 1.158c.76.73 1.17 1.69 1.157 2.702a3.627 3.627 0 01-.428 1.663 4.012 4.012 0 01-1.147 1.33l-.224.163-.004.003c-.577.47-1.7.587-2.155.616h-.004l-.801-.009a5.44 5.44 0 00-2.068.502 5.805 5.805 0 00-1.717 1.205 5.691 5.691 0 00-1.176 1.72 5.234 5.234 0 00-.45 2.055v.027c0 .229.133.491.355.704.222.21.5.336.74.336l5.2.062c.141 0 .251.036.322.104.068.067.102.168.1.297-.004.135-.066.362-.438.362l-5.21-.06zM7.038.779c-.843 0-1.646.313-2.258.88-.611.569-.955 1.323-.965 2.123a2.93 2.93 0 00.914 2.16 3.264 3.264 0 002.256.925h.053a3.26 3.26 0 002.241-.884 2.965 2.965 0 00.961-2.12c.013-.805-.31-1.572-.913-2.163A3.28 3.28 0 007.07.774l-.032.004z" fill="#248AFD"/></g></svg>