zzz<svg t="1605766477103" class="icon" viewBox="0 0 1024 1024" version="1.1" xmlns="http://www.w3.org/2000/svg" p-id="2511" xmlns:xlink="http://www.w3.org/1999/xlink" width="200" height="200"><defs><style type="text/css"></style></defs><path d="M768 384h-32V256c0-124.8-99.2-224-224-224S288 131.2 288 256v128H256c-54.4 0-96 41.6-96 96v416c0 54.4 41.6 96 96 96h512c54.4 0 96-41.6 96-96V480c0-54.4-41.6-96-96-96z m-224 310.4V768c0 19.2-12.8 32-32 32s-32-12.8-32-32v-73.6c-19.2-9.6-32-32-32-54.4 0-35.2 28.8-64 64-64s64 28.8 64 64c0 22.4-12.8 44.8-32 54.4z m128-310.4H352V256c0-89.6 70.4-160 160-160s160 70.4 160 160v128z" p-id="2512"></path></svg>