<svg width="15" height="15"><path d="M14.752 10.712H8.717a.25.25 0 01-.25-.245v-.58a.247.247 0 01.25-.245h6.035c.136 0 .246.109.248.245v.58a.247.247 0 01-.248.245zm0 2.144H8.717a.25.25 0 01-.25-.245v-.58a.247.247 0 01.25-.245h6.035c.136 0 .246.109.248.245v.578a.25.25 0 01-.248.247zm0 2.144H8.717a.25.25 0 01-.25-.245v-.58a.247.247 0 01.25-.245h6.035c.136 0 .246.109.248.245v.578a.25.25 0 01-.248.247zM7.379 9.548v1.088c-1.758 0-3.189-1.407-3.189-3.138 0-1.73 1.43-3.138 3.189-3.138 1.757 0 3.188 1.408 3.188 3.138 0 .367-.063.73-.19 1.072H9.15c.203-.32.312-.693.312-1.072 0-1.128-.936-2.048-2.084-2.048-1.146 0-2.082.92-2.082 2.048 0 1.13.934 2.05 2.082 2.05zm-.263 4.36a.26.26 0 01.265.26v.57a.262.262 0 01-.263.26h-1.04a.926.926 0 01-.934-.874l-.152-1.101a6.207 6.207 0 01-1.282-.726l-1.041.42a.942.942 0 01-1.237-.358L.126 10.141a.91.91 0 01.303-1.233l.892-.68a5.44 5.44 0 010-1.457l-.89-.68a.908.908 0 01-.305-1.228L1.43 2.64a.942.942 0 011.235-.36l1.043.42a6 6 0 011.282-.726L5.143.876A.923.923 0 016.075 0H8.68c.5 0 .909.383.932.874l.153 1.101c.455.189.887.434 1.284.726l1.043-.417a.945.945 0 011.235.357l1.3 2.22a.91.91 0 01-.3 1.233l-.893.679c.063.482.063.974 0 1.456l.45.343h-1.63l.039-.205a4.646 4.646 0 000-1.734l-.06-.323 1.36-1.035-1.162-1.985-1.574.666-.258-.216a4.953 4.953 0 00-1.527-.863l-.314-.113-.232-1.676H6.229l-.232 1.676-.314.113a5.025 5.025 0 00-1.529.865l-.256.212-1.587-.638-1.15 1.955 1.36 1.036-.06.324a4.772 4.772 0 00-.083.865c.002.29.03.583.082.867l.058.325L1.16 9.724l1.166 1.984 1.572-.666.26.214c.453.376.97.67 1.527.864l.314.112.232 1.676h.885z" fill="#4E9BFF"/></svg>