<?xml version="1.0" encoding="UTF-8"?>
<svg width="10px" height="6px" viewBox="0 0 10 6" version="1.1" xmlns="http://www.w3.org/2000/svg" xmlns:xlink="http://www.w3.org/1999/xlink">
    <!-- Generator: Sketch 63 (92445) - https://sketch.com -->
    <title>路径</title>
    <desc>Created with Sketch.</desc>
    <g id="页面-1" stroke="none" stroke-width="1" fill="none" fill-rule="evenodd">
        <g id="后台系统输入框展开收起备份-2" transform="translate(-883.000000, -101.000000)" fill="#AAAAAA" fill-rule="nonzero">
            <path d="M883.649456,107 C883.482751,107 883.316045,106.930175 883.191016,106.795511 C882.936328,106.521197 882.936328,106.082294 883.191016,105.80798 L887.409586,101.264339 C887.567029,101.094763 887.780042,101 888.002315,101 C888.224589,101 888.437601,101.094763 888.595045,101.264339 L892.808984,105.802993 C893.063672,106.077307 893.063672,106.516209 892.808984,106.790524 C892.554295,107.064838 892.146793,107.064838 891.892105,106.790524 L888.002315,102.605985 L884.107895,106.795511 C883.982866,106.935162 883.816161,107 883.649456,107 Z" id="路径" transform="translate(888.000000, 104.000000) rotate(-180.000000) translate(-888.000000, -104.000000) "></path>
        </g>
    </g>
</svg>