<?xml version="1.0" standalone="no"?><!DOCTYPE svg PUBLIC "-//W3C//DTD SVG 1.1//EN" "http://www.w3.org/Graphics/SVG/1.1/DTD/svg11.dtd"><svg t="1600931196674" class="icon" viewBox="0 0 1097 1024" version="1.1" xmlns="http://www.w3.org/2000/svg" p-id="2296" xmlns:xlink="http://www.w3.org/1999/xlink" width="214.2578125" height="200"><defs><style type="text/css"></style></defs><path d="M747.28571406 689.42857108l-78.46875001-37.96875001c10.48660702-19.64732108 12.65625-43.63392892 12.65625-67.37946405 0-23.74553595-10.24553595-122.10267893-119.33035702-138.375V371.69642892c69.54910702-9.94419608 123.24776798-68.70535702 123.24776797-140.00223284C685.390625 153.64732108 620.90401798 90.125 541.59151797 90.125S397.73214297 153.64732108 397.73214297 231.75446405c0 71.11607107 53.75892892 129.99776797 123.30803595 139.94196487V445.70535702c-109.08482107 20.61160703-116.07589298 106.37276798-116.07589298 120.41517893 0 21.9375-2.04910702 62.13616095 7.05133906 80.69866012l-79.3125 38.390625a144.22098203 144.22098203 0 0 0-98.71875-38.87276715C154.61160703 646.33705393 90.125 709.859375 90.125 787.90625c0 78.046875 64.48660702 141.56919608 143.859375 141.56919608 79.25223202 0 143.79910702-63.52232108 143.79910702-141.62946405 0-25.49330392-6.99107107-49.41964298-19.04464297-70.09151798l76.54017892-36.94419608c21.99776797 23.74553595 60.08705392 41.94642892 107.15625 41.9464281 47.12946405 0 80.03571405-16.39285703 101.671875-38.08928512l78.6495531 38.08928512c-10.36607107 19.52678594-16.27232108 41.70535702-16.27232107 65.2098219 0 78.10714298 64.48660702 141.62946405 143.79910702 141.62946405S994.14285703 866.07366095 994.14285703 787.96651797c0-78.046875-64.48660702-141.62946405-143.85937501-141.62946404-40.37946405 0-76.84151798 16.51339298-102.99776797 43.09151714z" p-id="2297"></path></svg>