<svg width="15" height="16"><path d="M9.117 3l-1.47 3.26h-.294L5.883 3H5l1.47 3.26H5v.888h2.058v1.483H5v.888h2.058V11h.884V9.519H10V8.63H7.942V7.147H10V6.26H8.528L10 3z"/><path d="M7.5 16a.898.898 0 01-.416-.098 24.212 24.212 0 01-3.646-2.489c-1.002-.834-1.798-1.668-2.367-2.477C.36 9.927 0 8.95 0 8.035V1.548c0-.24.152-.518.361-.66.093-.06.477-.276 1.51-.48C3.237.138 5.13 0 7.5 0c2.37 0 4.264.137 5.63.408 1.032.204 1.416.42 1.508.48a.86.86 0 01.362.66v6.487c0 .916-.36 1.892-1.071 2.9-.569.81-1.365 1.644-2.366 2.478a24.19 24.19 0 01-3.646 2.489A.898.898 0 017.5 16zm.004-.693a.124.124 0 00.026-.003c.32-.183 6.47-3.737 6.47-7.27V1.549a.222.222 0 00-.052-.103C13.9 1.417 12.58.693 7.5.693c-1.475 0-3.566.065-5.151.372-.968.188-1.291.379-1.302.385A.224.224 0 001 1.548v6.487C1 11.557 7.114 15.1 7.466 15.3l.038.006z"/></svg>