<svg width="15" height="15"><path d="M15 .525V.522L14.999.48l-.001-.013a.782.782 0 00-.015-.084l.008.038a.581.581 0 00-.037-.12l.024.065a.508.508 0 00-.058-.132l.041.087a.526.526 0 00-.094-.15l.07.102a.546.546 0 00-.152-.178l.101.098a.53.53 0 00-.2-.149l.127.076a.504.504 0 00-.188-.098l.15.07-.012-.008a.495.495 0 00-.184-.079l.143.055a.51.51 0 00-.178-.06l.124.035a.467.467 0 00-.14-.03l.097.015a.529.529 0 00-.122-.018l.071.008a.494.494 0 00-.097-.01h.005l-.044.002-.012.002a.616.616 0 00-.086.015l.04-.01a.566.566 0 00-.119.037l.068-.022a.508.508 0 00-.144.07c.086-.05.076-.051.068-.047-.005.002-.01 0-.013 0L.278 7.374a.528.528 0 00.004.934l3.752 1.9a.52.52 0 00.69-.233.523.523 0 00-.218-.698L1.658 7.835l10.752-5.64-6.628 7.976a.522.522 0 00-.12.334v3.989a.522.522 0 001.04 0v-3.797l6.991-8.414-1.591 10.804-3.752-1.87a.52.52 0 00-.683.241.524.524 0 00.217.694l4.396 2.19a.52.52 0 00.745-.39L14.996.585l.001-.015A.247.247 0 0015 .525z" fill="#4E9BFF"/></svg>