<svg width="14" height="14"><path d="M14 .49V.487l-.001-.04v-.01a.73.73 0 00-.015-.08l.008.036a.542.542 0 00-.035-.112l.022.06a.474.474 0 00-.054-.122l.039.08a.49.49 0 00-.088-.14l.065.095A.51.51 0 0013.8.088l.095.092a.495.495 0 00-.187-.139l.118.071A.47.47 0 0013.65.02l.14.064-.012-.007a.462.462 0 00-.17-.073l.133.051A.475.475 0 0013.575 0l.115.033a.436.436 0 00-.13-.028l.09.014A.494.494 0 0013.536 0l.067.008A.461.461 0 0013.512 0h.005l-.042.001-.01.002a.574.574 0 00-.081.015l.038-.009a.528.528 0 00-.111.034l.062-.021a.474.474 0 00-.134.065c.08-.045.072-.047.064-.043-.005.002-.01 0-.012 0L.26 6.883a.493.493 0 00.004.871l3.501 1.773a.485.485 0 00.644-.217.488.488 0 00-.203-.651L1.548 7.313l10.035-5.264-6.186 7.444a.487.487 0 00-.113.311v3.723a.487.487 0 00.972 0V9.984L12.78 2.13l-1.485 10.083-3.502-1.744a.489.489 0 00-.435.872l4.104 2.044a.485.485 0 00.695-.364L13.997.545V.531C14 .52 14 .505 14 .49z"/></svg>