<svg width="14" height="14"><path d="M11.714 14h-9.5C1 14 0 12.88 0 11.52V2.48C0 1.12 1 0 2.214 0h1.857c.572 0 .858.72 1.143 1.52.072.24.215.56.357.8.072.08.143.08.215.08h6C13 2.4 14 3.52 14 4.88v6.72c-.071 1.28-1.071 2.4-2.286 2.4zM2.086 1.167c-.66 0-1.173.559-1.173 1.278v9.11c0 .719.513 1.278 1.173 1.278h9.828c.66 0 1.173-.559 1.173-1.278V4.842c0-.719-.513-1.278-1.173-1.278h-6.38c-.587 0-1.394-1.678-1.614-2.238-.073-.08-.147-.16-.293-.16h-1.54z"/><path d="M5.223 7.288H9.68c.176 0 .319.16.319.356C10 7.84 9.857 8 9.68 8H4.295a.292.292 0 01-.13-.032l-.03-.021a.33.33 0 01-.076-.072.347.347 0 01-.016-.039.307.307 0 01-.041-.178v-.021a.41.41 0 01.108-.242l1.462-1.321a.293.293 0 01.317-.047c.105.049.18.157.194.283a.377.377 0 01-.122.33l-.737.648zM10 9.38a.415.415 0 01-.108.244l-1.48 1.302c-.14.12-.34.09-.447-.067a.391.391 0 01.06-.503l.736-.639H4.318c-.176 0-.318-.16-.318-.358C4 9.16 4.142 9 4.318 9h5.447l.054.022.048.035a.333.333 0 01.05.05.36.36 0 01.016.04c.024.04.038.088.042.136.01.024.02.05.025.076v.021z"/></svg>