<?xml version="1.0" encoding="UTF-8"?>
<svg width="14px" height="14px" viewBox="0 0 14 14" version="1.1" xmlns="http://www.w3.org/2000/svg" xmlns:xlink="http://www.w3.org/1999/xlink">
    <!-- Generator: Sketch 63 (92445) - https://sketch.com -->
    <title>编组 3</title>
    <desc>Created with Sketch.</desc>
    <g id="图标页面" stroke="none" stroke-width="1" fill="none" fill-rule="evenodd">
        <g id="画板" transform="translate(-195.000000, -42.000000)" fill="#333333" fill-rule="nonzero">
            <g id="分配至人" transform="translate(186.000000, 33.000000)">
                <g id="编组-3" transform="translate(9.000000, 9.000000)">
                    <g id="编组" transform="translate(1.000000, 0.000000)">
                        <path d="M10,4.04399031 C10.0125898,2.05723106 8.62357464,0.359304776 6.73216045,0.0495021622 C4.84074625,-0.260300452 3.01518337,0.911096695 2.43739843,2.80529438 C1.8596135,4.69949206 2.70319434,6.74740364 4.42198029,7.62314698 C3.51619558,7.90886951 2.69187115,8.42096325 2.02138933,9.11446226 C0.917423301,10.2472273 0,12.0812278 0,13.6962905 C0.0161864529,13.8685908 0.155780941,14 0.322627191,14 C0.48947344,14 0.629067928,13.8685908 0.645254381,13.6962905 C0.645254381,12.2747814 1.5045742,10.6057775 2.48010098,9.59993298 C3.41235815,8.63562001 4.6656269,8.07912931 5.9815999,8.04515747 L6.11615532,8.04515747 C7.14315962,8.05106483 8.13014264,7.63232656 8.85893323,6.88150415 C9.58772383,6.13068174 9.99830341,5.10960819 10,4.04399031 Z M6.10511338,7 L6.04261354,6.98582555 L5.90625023,6.98582555 C4.26847956,6.93472857 2.97476782,5.58176601 3.00037362,3.94686243 C3.02597942,2.31195885 4.36142906,1 6,1 C7.63857094,1 8.97402058,2.31195885 8.99962638,3.94686243 C9.02523218,5.58176601 7.73152044,6.93472857 6.09374977,6.98582555 L6.10511338,7 Z M8.13224877,10.2878849 L11.7045829,10.2878849 C11.8677472,10.2879257 12,10.4473262 12,10.6439424 C12,10.8405587 11.8677472,10.9999592 11.7045829,11 L7.27240655,11 C7.23059786,10.9997666 7.18930625,10.9888443 7.15126039,10.9679548 L7.12466733,10.9465914 C7.09807902,10.9274777 7.07414879,10.9034473 7.05375251,10.8753798 C7.04812096,10.8627286 7.04318567,10.849645 7.03897859,10.8362135 C7.01683524,10.7957826 7.00361456,10.7492145 7.00056639,10.7009116 C6.9998112,10.6866839 6.9998112,10.6724125 7.00056639,10.6581847 L7.00056639,10.6368213 C7.00910911,10.5442918 7.04472536,10.4584552 7.10102906,10.3947022 L8.45432024,9.07372864 C8.53824384,8.99613229 8.65014635,8.97838234 8.74787517,9.02716502 C8.845604,9.0759477 8.9143118,9.18385176 8.92811702,9.31023079 C8.94192224,9.43660981 8.89872753,9.56226382 8.81480392,9.63986015 L8.13224877,10.2878849 Z M12,12.3586086 L12,12.3801251 C11.9914965,12.4733176 11.9560439,12.5597692 11.8999988,12.623979 L10.5293938,13.9257282 C10.400255,14.0465411 10.215241,14.0168386 10.1161535,13.8593856 C10.0170659,13.7019326 10.0414271,13.4763535 10.1705659,13.3555405 L10.8529272,12.7172172 L7.29406016,12.7172172 C7.13164534,12.7171761 7,12.5566336 7,12.3586086 C7,12.1605836 7.13164534,12.0000411 7.29406016,12 L11.7823503,12 L11.8323509,12.0215165 L11.8764691,12.0573774 C11.8935742,12.072026 11.9093498,12.0888562 11.9235285,12.1075826 C11.9291193,12.1203334 11.9340314,12.1335096 11.9382345,12.1470295 C11.9602762,12.1877502 11.9734361,12.2346519 11.9764703,12.2833008 C11.9867552,12.3071659 11.9946548,12.3324491 12,12.3586086 L12,12.3586086 Z" id="形状"></path>
                    </g>
                </g>
            </g>
        </g>
    </g>
</svg>