<svg width="14" height="14"><path d="M11 4.044C11.013 2.057 9.624.359 7.732.05 5.841-.26 4.015.91 3.437 2.805 2.86 4.7 3.703 6.747 5.422 7.623a5.746 5.746 0 00-2.4 1.491C1.916 10.247 1 12.081 1 13.696a.329.329 0 00.323.304.329.329 0 00.322-.304c0-1.421.86-3.09 1.835-4.096a5.052 5.052 0 013.502-1.555h.134A3.791 3.791 0 009.86 6.882 4.085 4.085 0 0011 4.044zM7.105 7l-.062-.014h-.137A2.996 2.996 0 014 3.946 2.997 2.997 0 017 1a2.997 2.997 0 013 2.947 2.996 2.996 0 01-2.906 3.039L7.105 7zm2.027 3.288h3.573c.163 0 .295.16.295.356 0 .197-.132.356-.295.356H8.272a.254.254 0 01-.12-.032l-.027-.021a.316.316 0 01-.071-.072.363.363 0 01-.015-.039.325.325 0 01-.038-.178v-.021a.425.425 0 01.1-.242l1.353-1.321a.256.256 0 01.294-.047.354.354 0 01.18.283.394.394 0 01-.113.33l-.683.648zM13 12.358v.022a.431.431 0 01-.1.244l-1.37 1.302c-.13.12-.315.09-.414-.067a.414.414 0 01.055-.503l.682-.639H8.294c-.162 0-.294-.16-.294-.358 0-.198.132-.359.294-.359h4.488l.05.022.044.035a.321.321 0 01.048.05l.014.04a.33.33 0 01.038.136c.01.024.019.05.024.076z"/></svg>